<?xml version="1.0" standalone="no"?>
<!DOCTYPE svg PUBLIC "-//W3C//DTD SVG 20010904//EN"
 "http://www.w3.org/TR/2001/REC-SVG-20010904/DTD/svg10.dtd">
<svg version="1.0" xmlns="http://www.w3.org/2000/svg"
 width="1042.000000pt" height="1042.000000pt" viewBox="0 0 1042.000000 1042.000000"
 preserveAspectRatio="xMidYMid meet">
<metadata>
Created by potrace 1.14, written by Peter Selinger 2001-2017
</metadata>
<g transform="translate(0.000000,1042.000000) scale(0.100000,-0.100000)"
fill="#000000" stroke="none">
<path d="M2190 6500 l0 -80 49 0 c88 0 147 -31 201 -106 17 -24 188 -317 381
-651 l349 -606 0 -382 c0 -262 -4 -393 -12 -416 -33 -98 -94 -131 -255 -137
l-113 -5 0 -78 0 -79 575 0 575 0 0 79 0 78 -113 5 c-133 5 -193 27 -232 87
-40 60 -44 108 -45 482 l0 357 316 558 c174 308 337 591 361 629 86 134 153
184 246 185 l47 0 0 80 0 80 -455 0 -455 0 0 -80 0 -80 88 0 c109 0 154 -12
200 -55 37 -33 37 -34 37 -112 -1 -97 -8 -114 -216 -486 -84 -149 -185 -334
-224 -410 l-72 -139 -38 99 c-49 127 -104 237 -271 540 -187 338 -204 375
-204 441 0 100 34 122 190 122 l100 0 0 80 0 80 -505 0 -505 0 0 -80z"/>
<path d="M6560 5958 c-681 -1824 -637 -1713 -697 -1779 -40 -45 -82 -59 -170
-59 l-63 0 0 -80 0 -80 450 0 450 0 0 79 0 79 -97 4 c-114 4 -165 24 -201 78
-22 32 -23 43 -19 115 4 68 17 112 84 295 l78 215 481 3 482 2 47 -132 c114
-317 125 -352 125 -409 0 -42 -6 -65 -23 -89 -37 -56 -79 -74 -184 -78 l-93
-4 0 -79 0 -79 510 0 511 0 -3 78 -3 77 -75 6 c-117 8 -157 34 -208 134 -14
29 -750 2031 -844 2298 l-10 27 -148 0 -148 0 -232 -622z m401 -61 c28 -83
107 -309 175 -501 68 -192 124 -353 124 -357 0 -5 -180 -9 -400 -9 -223 0
-400 4 -400 9 0 5 70 199 155 431 147 399 206 574 235 700 l13 55 23 -88 c13
-48 47 -156 75 -240z"/>
<path d="M4590 4960 l0 -140 480 0 480 0 0 140 0 140 -480 0 -480 0 0 -140z"/>
</g>
</svg>
